<?plantuml 1.2026.1?><svg xmlns="http://www.w3.org/2000/svg" xmlns:xlink="http://www.w3.org/1999/xlink" contentStyleType="text/css" data-diagram-type="DESCRIPTION" height="515px" preserveAspectRatio="none" style="width:1219px;height:515px;background:#FFFFFF;" version="1.1" viewBox="0 0 1219 515" width="1219px" zoomAndPan="magnify"><title>Telegram-&#1073;&#1086;&#1090; &#1088;&#1077;&#1075;&#1080;&#1089;&#1090;&#1088;&#1072;&#1094;&#1080;&#1080; &#1074;&#1080;&#1079;&#1080;&#1090;&#1072; &#1074; Qmatic Orchestra 6 &#8212; &#1089;&#1077;&#1090;&#1077;&#1074;&#1086;&#1081; &#1082;&#1086;&#1085;&#1090;&#1091;&#1088;</title><defs/><g><g class="title" data-source-line="1"><text fill="#000000" font-family="Arial" font-size="14" font-weight="bold" lengthAdjust="spacing" textLength="594.1934" x="305.8552" y="22.9951">Telegram-&#1073;&#1086;&#1090; &#1088;&#1077;&#1075;&#1080;&#1089;&#1090;&#1088;&#1072;&#1094;&#1080;&#1080; &#1074;&#1080;&#1079;&#1080;&#1090;&#1072; &#1074; Qmatic Orchestra 6 &#8212; &#1089;&#1077;&#1090;&#1077;&#1074;&#1086;&#1081; &#1082;&#1086;&#1085;&#1090;&#1091;&#1088;</text></g><!--cluster Internet--><g class="cluster" data-qualified-name="Internet" data-source-line="24" id="ent0003"><path d="M752.234,260.8482 C756.5049,252.7581 762.2069,251.3247 769.0542,257.8915 C772.9081,251.615 777.5626,249.9486 782.9717,256.1579 C788.5332,247.9219 793.8523,248.1748 799.813,255.7323 C803.8006,249.0759 811.3244,248.3993 815.6999,255.2769 C821.0197,246.4415 826.1635,246.2061 832.4938,254.2729 C835.9694,245.372 841.2433,244.2339 847.7329,251.4171 C852.8538,244.9318 858.7961,245.2874 863.408,252.0208 C867.9092,246.5001 875.4468,246.1572 878.2112,253.9517 C884.4981,245.2963 892.1244,247.3863 895.3866,256.8231 C898.6885,250.6622 905.4675,249.0556 909.7288,255.753 C915.6972,248.4451 922.3626,250.7794 925.4916,258.6933 C934.8005,248.9554 945.3832,252.2249 948,265.2969 C949.0049,264.4539 949.8831,264.2993 950.4642,265.7518 C957.8238,270.7004 957.1721,276.2939 950.8194,281.5507 C958.8533,284.2278 958.8176,289.6131 953.3794,294.878 C960.3018,298.3668 962.3253,303.9307 955.2883,309.271 C961.8603,313.0667 960.9388,317.9368 954.977,321.4113 C960.706,327.5476 959.5514,334.5688 950.3564,335.9678 C958.4304,346.3411 951.9926,354.6989 941,356.2969 C942.7411,355.8035 943.585,356.8854 943.1439,358.508 C938.3314,367.8231 931.3644,368.5849 925.538,359.4768 C921.512,365.7544 914.6035,366.5077 910.6772,359.3663 C907.3486,367.9873 901.7304,368.2164 895.6309,362.2181 C890.4796,371.2445 884.6337,369.4042 878.9715,362.7614 C876.2339,370.3288 869.7575,371.9164 864.4734,365.3789 C859.665,372.0223 853.4366,374.0795 848.48,365.5349 C843.0296,374.5796 836.908,374 831.0634,365.9363 C824.5819,373.4398 818.6304,370.9338 814.7743,363.1406 C809.2295,370.4418 803.9043,370.9021 798.5511,362.9369 C792.0157,369.1131 786.4231,369.0885 782.9549,359.8364 C776.9351,366.0392 771.9317,365.8637 767.5033,358.0785 C755.4261,366.6451 748.184,361.856 744,349.2969 C745.6866,348.6908 746.7562,349.1309 746.7145,351.111 C738.3886,348.9225 737.7081,341.8878 742.7293,336.1452 C734.3331,333.9143 732.953,326.9673 740.0064,321.8032 C734.5022,318.7889 732.818,313.6182 738.496,309.2577 C732.8822,304.3313 732.8975,297.9398 740.7479,295.1649 C733.9138,289.558 734.9546,284.8003 742.0696,280.446 C735.3936,269.4024 738.0926,261.4446 751,258.2969 C752.6971,258.2632 752.968,259.7061 752.234,260.8482" fill="#FFFFFF" style="stroke:#333333;stroke-width:1;"/><text fill="#000000" font-family="Arial" font-size="14" font-weight="bold" lengthAdjust="spacing" textLength="76.3027" x="807.8486" y="276.292">&#1048;&#1085;&#1090;&#1077;&#1088;&#1085;&#1077;&#1090;</text></g><!--cluster Corp--><g class="cluster" data-qualified-name="Corp" data-source-line="28" id="ent0005"><polygon fill="#FFFFFF" points="16,53.2969,26,43.2969,712,43.2969,712,488.2969,702,498.2969,16,498.2969,16,53.2969" style="stroke:#333333;stroke-width:1;"/><line style="stroke:#333333;stroke-width:1;" x1="702" x2="712" y1="53.2969" y2="43.2969"/><line style="stroke:#333333;stroke-width:1;" x1="16" x2="702" y1="53.2969" y2="53.2969"/><line style="stroke:#333333;stroke-width:1;" x1="702" x2="702" y1="53.2969" y2="498.2969"/><text fill="#000000" font-family="Arial" font-size="14" font-weight="bold" lengthAdjust="spacing" textLength="309.0186" x="205.4907" y="69.292">&#1050;&#1086;&#1088;&#1087;&#1086;&#1088;&#1072;&#1090;&#1080;&#1074;&#1085;&#1099;&#1081; / &#1092;&#1080;&#1083;&#1080;&#1072;&#1083;&#1100;&#1085;&#1099;&#1081; &#1082;&#1086;&#1085;&#1090;&#1091;&#1088;</text></g><!--cluster DMZ--><g class="cluster" data-qualified-name="Corp.DMZ" data-source-line="29" id="ent0006"><polygon fill="#FFFFFF" points="398,101.2969,408,91.2969,686,91.2969,686,216.2969,676,226.2969,398,226.2969,398,101.2969" style="stroke:#333333;stroke-width:1;"/><line style="stroke:#333333;stroke-width:1;" x1="676" x2="686" y1="101.2969" y2="91.2969"/><line style="stroke:#333333;stroke-width:1;" x1="398" x2="676" y1="101.2969" y2="101.2969"/><line style="stroke:#333333;stroke-width:1;" x1="676" x2="676" y1="101.2969" y2="226.2969"/><text fill="#000000" font-family="Arial" font-size="14" font-weight="bold" lengthAdjust="spacing" textLength="212.4336" x="431.7832" y="117.292">DMZ / integration segment</text></g><!--cluster App--><g class="cluster" data-qualified-name="Corp.App" data-source-line="33" id="ent0008"><polygon fill="#FFFFFF" points="450,263.7969,460,253.7969,688,253.7969,688,464.2969,678,474.2969,450,474.2969,450,263.7969" style="stroke:#333333;stroke-width:1;"/><line style="stroke:#333333;stroke-width:1;" x1="678" x2="688" y1="263.7969" y2="253.7969"/><line style="stroke:#333333;stroke-width:1;" x1="450" x2="678" y1="263.7969" y2="263.7969"/><line style="stroke:#333333;stroke-width:1;" x1="678" x2="678" y1="263.7969" y2="474.2969"/><text fill="#000000" font-family="Arial" font-size="14" font-weight="bold" lengthAdjust="spacing" textLength="162.7637" x="483.6182" y="279.792">Application segment</text></g><!--entity TelegramApi--><g class="entity" data-qualified-name="Internet.TelegramApi" data-source-line="25" id="ent0004"><rect fill="#FFFFFF" height="62.5938" rx="2.5" ry="2.5" style="stroke:#333333;stroke-width:0.5;" width="188.3672" x="752" y="285.2969"/><rect fill="#FFFFFF" height="10" style="stroke:#333333;stroke-width:0.5;" width="15" x="920.3672" y="290.2969"/><rect fill="#FFFFFF" height="2" style="stroke:#333333;stroke-width:0.5;" width="4" x="918.3672" y="292.2969"/><rect fill="#FFFFFF" height="2" style="stroke:#333333;stroke-width:0.5;" width="4" x="918.3672" y="296.2969"/><text fill="#000000" font-family="Arial" font-size="14" lengthAdjust="spacing" textLength="121.2354" x="767" y="318.292">Telegram Bot API</text><text fill="#000000" font-family="Arial" font-size="14" lengthAdjust="spacing" textLength="148.3672" x="767" y="334.5889">api.telegram.org:443</text></g><!--entity DNS--><g class="entity" data-qualified-name="Corp.DNS" data-source-line="38" id="ent0011"><rect fill="#FFFFFF" height="46.2969" rx="2.5" ry="2.5" style="stroke:#333333;stroke-width:0.5;" width="70.1396" x="32" y="293.7969"/><rect fill="#FFFFFF" height="10" style="stroke:#333333;stroke-width:0.5;" width="15" x="82.1396" y="298.7969"/><rect fill="#FFFFFF" height="2" style="stroke:#333333;stroke-width:0.5;" width="4" x="80.1396" y="300.7969"/><rect fill="#FFFFFF" height="2" style="stroke:#333333;stroke-width:0.5;" width="4" x="80.1396" y="304.7969"/><text fill="#000000" font-family="Arial" font-size="14" lengthAdjust="spacing" textLength="30.1396" x="47" y="326.792">DNS</text></g><!--entity NTP--><g class="entity" data-qualified-name="Corp.NTP" data-source-line="39" id="ent0012"><rect fill="#FFFFFF" height="46.2969" rx="2.5" ry="2.5" style="stroke:#333333;stroke-width:0.5;" width="67.4668" x="137.5" y="293.7969"/><rect fill="#FFFFFF" height="10" style="stroke:#333333;stroke-width:0.5;" width="15" x="184.9668" y="298.7969"/><rect fill="#FFFFFF" height="2" style="stroke:#333333;stroke-width:0.5;" width="4" x="182.9668" y="300.7969"/><rect fill="#FFFFFF" height="2" style="stroke:#333333;stroke-width:0.5;" width="4" x="182.9668" y="304.7969"/><text fill="#000000" font-family="Arial" font-size="14" lengthAdjust="spacing" textLength="27.4668" x="152.5" y="326.792">NTP</text></g><!--entity Logs--><g class="entity" data-qualified-name="Corp.Logs" data-source-line="40" id="ent0013"><rect fill="#FFFFFF" height="62.5938" rx="2.5" ry="2.5" style="stroke:#333333;stroke-width:0.5;" width="194.9707" x="239.5" y="285.2969"/><rect fill="#FFFFFF" height="10" style="stroke:#333333;stroke-width:0.5;" width="15" x="414.4707" y="290.2969"/><rect fill="#FFFFFF" height="2" style="stroke:#333333;stroke-width:0.5;" width="4" x="412.4707" y="292.2969"/><rect fill="#FFFFFF" height="2" style="stroke:#333333;stroke-width:0.5;" width="4" x="412.4707" y="296.2969"/><text fill="#000000" font-family="Arial" font-size="14" lengthAdjust="spacing" textLength="89.8652" x="254.5" y="318.292">Log collector</text><text fill="#000000" font-family="Arial" font-size="14" lengthAdjust="spacing" textLength="154.9707" x="254.5" y="334.5889">stdout / journald / ELK</text></g><!--entity Bot--><g class="entity" data-qualified-name="Corp.DMZ.Bot" data-source-line="30" id="ent0007"><rect fill="#FFFFFF" height="78.8906" rx="2.5" ry="2.5" style="stroke:#333333;stroke-width:0.5;" width="208.1641" x="459" y="131.2969"/><rect fill="#FFFFFF" height="10" style="stroke:#333333;stroke-width:0.5;" width="15" x="647.1641" y="136.2969"/><rect fill="#FFFFFF" height="2" style="stroke:#333333;stroke-width:0.5;" width="4" x="645.1641" y="138.2969"/><rect fill="#FFFFFF" height="2" style="stroke:#333333;stroke-width:0.5;" width="4" x="645.1641" y="142.2969"/><text fill="#000000" font-family="Arial" font-size="14" lengthAdjust="spacing" textLength="168.1641" x="474" y="164.292">Telegram Orchestra Bot</text><text fill="#000000" font-family="Arial" font-size="14" lengthAdjust="spacing" textLength="127.0527" x="474" y="180.5889">Python + aiogram</text><text fill="#000000" font-family="Arial" font-size="14" lengthAdjust="spacing" textLength="167.2754" x="474" y="196.8857">polling + CometD client</text></g><!--entity Orchestra--><g class="entity" data-qualified-name="Corp.App.Orchestra" data-source-line="34" id="ent0009"><rect fill="#FFFFFF" height="46.2969" rx="2.5" ry="2.5" style="stroke:#333333;stroke-width:0.5;" width="177.1973" x="474.5" y="293.7969"/><rect fill="#FFFFFF" height="10" style="stroke:#333333;stroke-width:0.5;" width="15" x="631.6973" y="298.7969"/><rect fill="#FFFFFF" height="2" style="stroke:#333333;stroke-width:0.5;" width="4" x="629.6973" y="300.7969"/><rect fill="#FFFFFF" height="2" style="stroke:#333333;stroke-width:0.5;" width="4" x="629.6973" y="304.7969"/><text fill="#000000" font-family="Arial" font-size="14" lengthAdjust="spacing" textLength="137.1973" x="489.5" y="326.792">Qmatic Orchestra 6</text></g><!--entity OrchestraDb--><g class="entity" data-qualified-name="Corp.App.OrchestraDb" data-source-line="35" id="ent0010"><path d="M506,423.2969 C506,413.2969 562.9561,413.2969 562.9561,413.2969 C562.9561,413.2969 619.9121,413.2969 619.9121,423.2969 L619.9121,448.5938 C619.9121,458.5938 562.9561,458.5938 562.9561,458.5938 C562.9561,458.5938 506,458.5938 506,448.5938 L506,423.2969" fill="#F1F1F1" style="stroke:#181818;stroke-width:0.5;"/><path d="M506,423.2969 C506,433.2969 562.9561,433.2969 562.9561,433.2969 C562.9561,433.2969 619.9121,433.2969 619.9121,423.2969" fill="none" style="stroke:#181818;stroke-width:0.5;"/><text fill="#000000" font-family="Arial" font-size="14" lengthAdjust="spacing" textLength="93.9121" x="516" y="450.292">Orchestra DB</text></g><!--entity Visitor--><g class="entity" data-qualified-name="Visitor" data-source-line="22" id="ent0002"><ellipse cx="818.002" cy="132.7969" fill="#F1F1F1" rx="8" ry="8" style="stroke:#181818;stroke-width:0.5;"/><path d="M818.002,140.7969 L818.002,167.7969 M805.002,148.7969 L831.002,148.7969 M818.002,167.7969 L805.002,182.7969 M818.002,167.7969 L831.002,182.7969" fill="none" style="stroke:#181818;stroke-width:0.5;"/><text fill="#000000" font-family="Arial" font-size="14" lengthAdjust="spacing" textLength="86.625" x="756" y="197.292">&#1055;&#1086;&#1089;&#1077;&#1090;&#1080;&#1090;&#1077;&#1083;&#1100;</text><text fill="#000000" font-family="Arial" font-size="14" lengthAdjust="spacing" textLength="124.0039" x="756" y="213.5889">Telegram-&#1082;&#1083;&#1080;&#1077;&#1085;&#1090;</text></g><g class="entity" data-qualified-name="GMN22" data-source-line="55" id="ent0023"><path d="M915,143.2969 L915,198.6953 L1212.9038,198.6953 L1212.9038,153.2969 L1202.9038,143.2969 L915,143.2969" fill="#FEFFDD" style="stroke:#181818;stroke-width:0.5;"/><path d="M1202.9038,143.2969 L1202.9038,153.2969 L1212.9038,153.2969 L1202.9038,143.2969" fill="#FEFFDD" style="stroke:#181818;stroke-width:1;"/><text fill="#000000" font-family="Arial" font-size="13" lengthAdjust="spacing" textLength="276.9038" x="921" y="160.3638">&#1042;&#1093;&#1086;&#1076;&#1103;&#1097;&#1080;&#1081; &#1087;&#1086;&#1088;&#1090; &#1080;&#1079; &#1080;&#1085;&#1090;&#1077;&#1088;&#1085;&#1077;&#1090;&#1072; &#1085;&#1077; &#1085;&#1091;&#1078;&#1077;&#1085;:</text><text fill="#000000" font-family="Arial" font-size="13" lengthAdjust="spacing" textLength="185.7451" x="921" y="175.4966">&#1073;&#1086;&#1090; &#1088;&#1072;&#1073;&#1086;&#1090;&#1072;&#1077;&#1090; &#1095;&#1077;&#1088;&#1077;&#1079; polling,</text><text fill="#000000" font-family="Arial" font-size="13" lengthAdjust="spacing" textLength="138.3916" x="921" y="190.6294">&#1072; &#1085;&#1077; &#1095;&#1077;&#1088;&#1077;&#1079; webhook.</text></g><g class="entity" data-qualified-name="GMN25" data-source-line="61" id="ent0026"><path d="M728,408.2969 L728,463.6953 L969.5239,463.6953 L969.5239,418.2969 L959.5239,408.2969 L728,408.2969" fill="#FEFFDD" style="stroke:#181818;stroke-width:0.5;"/><path d="M959.5239,408.2969 L959.5239,418.2969 L969.5239,418.2969 L959.5239,408.2969" fill="#FEFFDD" style="stroke:#181818;stroke-width:1;"/><text fill="#000000" font-family="Arial" font-size="13" lengthAdjust="spacing" textLength="220.5239" x="734" y="425.3638">&#1044;&#1086;&#1089;&#1090;&#1091;&#1087; &#1076;&#1086;&#1083;&#1078;&#1077;&#1085; &#1073;&#1099;&#1090;&#1100; &#1086;&#1075;&#1088;&#1072;&#1085;&#1080;&#1095;&#1077;&#1085;</text><text fill="#000000" font-family="Arial" font-size="13" lengthAdjust="spacing" textLength="183.9614" x="734" y="440.4966">&#1089;&#1077;&#1088;&#1074;&#1080;&#1089;&#1085;&#1099;&#1084; &#1087;&#1086;&#1083;&#1100;&#1079;&#1086;&#1074;&#1072;&#1090;&#1077;&#1083;&#1077;&#1084;</text><text fill="#000000" font-family="Arial" font-size="13" lengthAdjust="spacing" textLength="184.1138" x="734" y="455.6294">&#1089; &#1084;&#1080;&#1085;&#1080;&#1084;&#1072;&#1083;&#1100;&#1085;&#1099;&#1084;&#1080; &#1087;&#1088;&#1072;&#1074;&#1072;&#1084;&#1080;.</text></g><!--link Visitor to TelegramApi--><g class="link" data-entity-1="ent0002" data-entity-2="ent0004" data-link-type="dependency" data-source-line="43" id="lnk14"><path d="M818,217.3969 C818,239.4269 818,259.1669 818,278.9269" fill="none" id="Visitor-to-TelegramApi" style="stroke:#181818;stroke-width:1;"/><polygon fill="#181818" points="818,284.9269,822,275.9269,818,279.9269,814,275.9269,818,284.9269" style="stroke:#181818;stroke-width:1;"/><text fill="#000000" font-family="Arial" font-size="13" lengthAdjust="spacing" textLength="111.4521" x="819" y="247.2338">&#1089;&#1086;&#1086;&#1073;&#1097;&#1077;&#1085;&#1080;&#1103; &#1073;&#1086;&#1090;&#1091;</text></g><!--link Bot to TelegramApi--><g class="link" data-entity-1="ent0007" data-entity-2="ent0004" data-link-type="dependency" data-source-line="44" id="lnk15"><path d="M656.67,210.5769 C656.67,244.6669 656.67,288.2969 656.67,288.2969 C656.67,288.2969 698.37,288.2969 745.89,288.2969" fill="none" id="Bot-to-TelegramApi" style="stroke:#181818;stroke-width:1;"/><polygon fill="#181818" points="751.89,288.2969,742.89,284.2969,746.89,288.2969,742.89,292.2969,751.89,288.2969" style="stroke:#181818;stroke-width:1;"/><text fill="#000000" font-family="Arial" font-size="13" lengthAdjust="spacing" textLength="70.6938" x="714.9827" y="254.3638">HTTPS 443</text><text fill="#000000" font-family="Arial" font-size="13" lengthAdjust="spacing" textLength="167.8193" x="666.42" y="269.4966">getUpdates/sendMessage</text><text fill="#000000" font-family="Arial" font-size="13" lengthAdjust="spacing" textLength="162.4048" x="669.1273" y="284.6294">&#1080;&#1089;&#1093;&#1086;&#1076;&#1103;&#1097;&#1077;&#1077; &#1089;&#1086;&#1077;&#1076;&#1080;&#1085;&#1077;&#1085;&#1080;&#1077;</text></g><!--link Bot to Orchestra--><g class="link" data-entity-1="ent0007" data-entity-2="ent0009" data-link-type="dependency" data-source-line="46" id="lnk16"><path d="M533.5,210.3069 C533.5,236.9969 533.5,265.3069 533.5,287.6569" fill="none" id="Bot-to-Orchestra" style="stroke:#181818;stroke-width:1;"/><polygon fill="#181818" points="533.5,293.6569,537.5,284.6569,533.5,288.6569,529.5,284.6569,533.5,293.6569" style="stroke:#181818;stroke-width:1;"/><text fill="#000000" font-family="Arial" font-size="13" lengthAdjust="spacing" textLength="58.1382" x="462.281" y="218.0538">REST API</text><text fill="#000000" font-family="Arial" font-size="13" lengthAdjust="spacing" textLength="83.7002" x="449.5" y="233.1866">GET services</text><text fill="#000000" font-family="Arial" font-size="13" lengthAdjust="spacing" textLength="71.957" x="455.3716" y="248.3194">POST visits</text></g><!--link Bot to Orchestra--><g class="link" data-entity-1="ent0007" data-entity-2="ent0009" data-link-type="dependency" data-source-line="47" id="lnk17"><path d="M592.5,210.3069 C592.5,236.9969 592.5,265.3069 592.5,287.6569" fill="none" id="Bot-to-Orchestra-1" style="stroke:#181818;stroke-width:1;"/><polygon fill="#181818" points="592.5,293.6569,596.5,284.6569,592.5,288.6569,588.5,284.6569,592.5,293.6569" style="stroke:#181818;stroke-width:1;"/><text fill="#000000" font-family="Arial" font-size="13" lengthAdjust="spacing" textLength="110.4238" x="635.3755" y="218.0538">CometD /cometd</text><text fill="#000000" font-family="Arial" font-size="13" lengthAdjust="spacing" textLength="194.1748" x="593.5" y="233.1866">handshake/subscribe/connect</text><text fill="#000000" font-family="Arial" font-size="13" lengthAdjust="spacing" textLength="76.2798" x="652.4475" y="248.3194">long-polling</text></g><!--link Orchestra to OrchestraDb--><g class="link" data-entity-1="ent0009" data-entity-2="ent0010" data-link-type="dependency" data-source-line="49" id="lnk18"><path d="M563,340.0269 C563,361.1269 563,386.0769 563,407.0369" fill="none" id="Orchestra-to-OrchestraDb" style="stroke:#181818;stroke-width:1;"/><polygon fill="#181818" points="563,413.0369,567,404.0369,563,408.0369,559,404.0369,563,413.0369" style="stroke:#181818;stroke-width:1;"/><text fill="#000000" font-family="Arial" font-size="13" lengthAdjust="spacing" textLength="158.0059" x="404" y="372.5938">&#1095;&#1090;&#1077;&#1085;&#1080;&#1077;/&#1079;&#1072;&#1087;&#1080;&#1089;&#1100; &#1074;&#1080;&#1079;&#1080;&#1090;&#1086;&#1074;</text></g><!--link Bot to DNS--><g class="link" data-entity-1="ent0007" data-entity-2="ent0011" data-link-type="dependency" data-source-line="50" id="lnk19"><path d="M458.72,158.2969 C313.24,158.2969 67,158.2969 67,158.2969 C67,158.2969 67,243.7869 67,287.7469" fill="none" id="Bot-to-DNS" style="stroke:#181818;stroke-width:1;"/><polygon fill="#181818" points="67,293.7469,71,284.7469,67,288.7469,63,284.7469,67,293.7469" style="stroke:#181818;stroke-width:1;"/><text fill="#000000" font-family="Arial" font-size="13" lengthAdjust="spacing" textLength="75.6577" x="119.13" y="154.3638">DNS lookup</text></g><!--link Bot to NTP--><g class="link" data-entity-1="ent0007" data-entity-2="ent0012" data-link-type="dependency" data-source-line="51" id="lnk20"><path d="M458.98,184.2969 C342.85,184.2969 171,184.2969 171,184.2969 C171,184.2969 171,249.7569 171,287.7169" fill="none" id="Bot-to-NTP" style="stroke:#181818;stroke-width:1;"/><polygon fill="#181818" points="171,293.7169,175,284.7169,171,288.7169,167,284.7169,171,293.7169" style="stroke:#181818;stroke-width:1;"/><text fill="#000000" font-family="Arial" font-size="13" lengthAdjust="spacing" textLength="63.356" x="196.28" y="180.3638">time sync</text></g><!--link Bot to Logs--><g class="link" data-entity-1="ent0007" data-entity-2="ent0013" data-link-type="dependency" data-source-line="52" id="lnk21"><path d="M466.75,210.5869 C466.75,245.6869 466.75,291.2969 466.75,291.2969 C466.75,291.2969 459.11,291.2969 440.68,291.2969" fill="none" id="Bot-to-Logs" style="stroke:#181818;stroke-width:1;"/><polygon fill="#181818" points="434.68,291.2969,443.68,295.2969,439.68,291.2969,443.68,287.2969,434.68,291.2969" style="stroke:#181818;stroke-width:1;"/><text fill="#000000" font-family="Arial" font-size="13" lengthAdjust="spacing" textLength="72.1348" x="393.75" y="280.0438">stdout logs</text></g><!--link Bot to GMN22--><g class="link" data-entity-1="ent0007" data-entity-2="ent0023" data-link-type="association" data-source-line="55" id="lnk24"><path d="M661.83,210.5769 C661.83,230.8569 661.83,251.2969 661.83,251.2969 C661.83,251.2969 927.5,251.2969 927.5,251.2969 C927.5,251.2969 927.5,221.7869 927.5,198.4969" fill="none" id="Bot-GMN22" style="stroke:#181818;stroke-width:1;stroke-dasharray:7,7;"/></g><!--link Orchestra to GMN25--><g class="link" data-entity-1="ent0009" data-entity-2="ent0026" data-link-type="association" data-source-line="61" id="lnk27"><path d="M651.5,317.2969 C695.75,317.2969 740,317.2969 740,317.2969 C740,317.2969 740,372.9869 740,408.0169" fill="none" id="Orchestra-GMN25" style="stroke:#181818;stroke-width:1;stroke-dasharray:7,7;"/></g><?plantuml-src fLNDRXit4BxlKn3gCRM5Da4FFXHmAhSDcZXkh2H0iHTgbrwnNf4BaafW10KKkwqH94208eSWbxw2yhEDcjZoAt1VeK_IRxYITWNdr4hGaZj__6RcuyX9bmlM5xd831zj-DT-NXspQk9B_zRFgiVLCVRJwdS_ypFcts1v3_6nd-A5_JZYJYRijac6mZh3sLVidyaBLZts9KnAcC_ztyn_m7AEG2VL98hieLG5nrdC3dcg7qgLiGEUMz7Iv589TrG8feqRwfOY5GTydBjljNAxV2JOjf4yR-cDI1nN6J9w535sHuzL-eqsIXZsnPVHBot3H8yAhOHomV0wJmupKrldsh3xG-a4oRL9XQbbdrqDdxKeIgVYVmL8SZrE_qE4Y2SEWex_4-sggpqB5VzOFOjLqyqF_YCwLbBrEunRTazQ2SSegW_k-9UaWl_4drEKO7H3EO6QrQLf2jLPXWKcnxRtRiIA5tBJBQIRscHRrwvT3I6Mfjk59BIXJXt_2c0d_Y8yfmGP13clde8YNLRzYbS2EwKS5k8sSq9SDBC8iEg8lLi_mLK2BmvpKYjcHJO2s61CMhBzT18DQP5EhFQEm3J5hZ0kDUbZLUWy9t9UmQaZuNfebbo6XWi28xCbaksYo6Lo6GFabp5SlZR1TlKUx5Fk-81Rn6xiUjVN3Nk39OfMzDxkVft-xlwwOhU_5nHOrnKtTORNF1T4gbXPb-gnGs5_rcEZU9vYktFpX-0BKqiTNH29RMnytMusswBBFyVtTVM4U0TQFcVrKAbE8YBEPO_l-_szVGRgn2eJxcw1p8NjMg7IMy9QdebOXKdq6yA-gvw7m6LzJkdVWJBdzKc-Z5OdD3NROdTszlirNx_RwQCxve5CX4NBRqF-W1And_HRjBsRq9h6QiXLYfbrABfsFB29aGC1dL8eMwnohRAD1MMYg0cp5hGte0ATXfiQ07SnJQUu4PJUi_PudVitAqne9DpecMjzE2vM2ZGI2YSn2EsHIbPoQX8KYpxcr39SGIUOaTdGCNqG-El_Q5LqHhSjt4nCVq91ZxNHG1CV6pog4_yN9R0LDVyMqtgBjIJ1QV0h4MPHai-ZfNzBzr0CXiXeCqAh6G5Sm1nev_I8S3PNmh-WIKSiyXSCNPzZM0GKO5Vr57AKR-xV1YZ4kbFIHM4sJgYksD5CEGjPXX7pdeeSvX369dvdi6R-BF1fXhKPH6VqrtSHGiE1NbkG_mK0?></g></svg>