<svg xmlns="http://www.w3.org/2000/svg" width="1700" height="980" viewBox="0 0 1700 980">
  <defs>
    <style>
      .title{font:700 44px Arial,sans-serif;fill:#222}
      .subtitle{font:20px Arial,sans-serif;fill:#666}
      .h{font:700 34px Arial,sans-serif}
      .t{font:24px Arial,sans-serif;fill:#222}
      .s{font:20px Arial,sans-serif;fill:#333}
      .legend{font:22px Arial,sans-serif;fill:#1f4e79}
      .n{font:700 20px Arial,sans-serif;fill:#222}
    </style>
    <marker id="arr" markerWidth="12" markerHeight="12" refX="11" refY="6" orient="auto">
      <path d="M0,0 L12,6 L0,12 z" fill="#444"/>
    </marker>
  </defs>

  <text x="850" y="60" text-anchor="middle" class="title">Telegram-бот регистрации визита в Qmatic Orchestra 6 — сетевая схема размещения</text>
  <text x="850" y="95" text-anchor="middle" class="subtitle">Подписи вынесены в легенду, чтобы стрелки и элементы не накладывались</text>

  <rect x="40" y="140" width="390" height="620" rx="20" fill="#eaf2fb" stroke="#5b8cc0" stroke-width="3"/>
  <text x="235" y="190" text-anchor="middle" class="h" fill="#1b4f7e">Внешняя сеть / Интернет</text>

  <circle cx="145" cy="290" r="25" fill="none" stroke="#333" stroke-width="3"/>
  <line x1="145" y1="315" x2="145" y2="410" stroke="#333" stroke-width="4"/>
  <line x1="95" y1="350" x2="195" y2="350" stroke="#333" stroke-width="4"/>
  <line x1="145" y1="410" x2="95" y2="475" stroke="#333" stroke-width="4"/>
  <line x1="145" y1="410" x2="195" y2="475" stroke="#333" stroke-width="4"/>
  <text x="70" y="540" class="t">Посетитель</text>
  <text x="70" y="575" class="t">Telegram-клиент</text>

  <rect x="230" y="250" width="175" height="140" rx="14" fill="#f5fbff" stroke="#5b8cc0" stroke-width="3"/>
  <text x="318" y="295" text-anchor="middle" class="s" font-weight="700">Telegram Bot API</text>
  <text x="318" y="325" text-anchor="middle" class="s">api.telegram.org</text>
  <text x="318" y="355" text-anchor="middle" class="s">HTTPS 443</text>

  <rect x="465" y="140" width="45" height="620" rx="16" fill="#fdf2e5" stroke="#d18d3f" stroke-width="3"/>
  <text x="535" y="340" class="s" fill="#a85f10">Граница</text>
  <text x="535" y="368" class="s" fill="#a85f10">корп. сети</text>
  <text x="535" y="440" class="s" fill="#a85f10">Firewall</text>
  <text x="535" y="468" class="s" fill="#a85f10">NAT</text>
  <text x="535" y="496" class="s" fill="#a85f10">HTTPS proxy</text>

  <rect x="550" y="140" width="430" height="440" rx="20" fill="#f8f6ef" stroke="#c3962c" stroke-width="3"/>
  <text x="765" y="190" text-anchor="middle" class="h" fill="#7f5b08">DMZ / integration segment</text>

  <rect x="610" y="250" width="310" height="180" rx="16" fill="#f2f2f2" stroke="#b89a40" stroke-width="3"/>
  <text x="765" y="295" text-anchor="middle" class="t" font-weight="700">Telegram Orchestra Bot</text>
  <text x="765" y="330" text-anchor="middle" class="t">Python + aiogram</text>
  <text x="765" y="365" text-anchor="middle" class="t">Polling client</text>
  <text x="765" y="398" text-anchor="middle" class="t">CometD client</text>

  <rect x="1040" y="140" width="620" height="440" rx="20" fill="#edf7ee" stroke="#549860" stroke-width="3"/>
  <text x="1350" y="190" text-anchor="middle" class="h" fill="#266e36">Application segment</text>

  <rect x="1110" y="220" width="280" height="150" rx="16" fill="#f2f2f2" stroke="#5c9f6b" stroke-width="3"/>
  <text x="1250" y="265" text-anchor="middle" class="t" font-weight="700">Qmatic Orchestra 6</text>
  <text x="1250" y="300" text-anchor="middle" class="t">REST API</text>
  <text x="1250" y="333" text-anchor="middle" class="t">GET services</text>
  <text x="1250" y="366" text-anchor="middle" class="t">POST visits</text>

  <rect x="1110" y="405" width="280" height="150" rx="16" fill="#f2f2f2" stroke="#5c9f6b" stroke-width="3"/>
  <text x="1250" y="450" text-anchor="middle" class="t" font-weight="700">Qmatic Orchestra 6</text>
  <text x="1250" y="485" text-anchor="middle" class="t">CometD / Bayeux</text>
  <text x="1250" y="518" text-anchor="middle" class="t">/events</text>

  <ellipse cx="1510" cy="390" rx="85" ry="40" fill="#f2f2f2" stroke="#5c9f6b" stroke-width="3"/>
  <rect x="1425" y="390" width="170" height="120" fill="#f2f2f2" stroke="#5c9f6b" stroke-width="3"/>
  <ellipse cx="1510" cy="510" rx="85" ry="40" fill="#f2f2f2" stroke="#5c9f6b" stroke-width="3"/>
  <text x="1510" y="445" text-anchor="middle" class="t" font-weight="700">Orchestra DB</text>
  <text x="1510" y="477" text-anchor="middle" class="s">визиты /</text>
  <text x="1510" y="505" text-anchor="middle" class="s">услуги / события</text>

  <rect x="560" y="610" width="1080" height="170" rx="20" fill="#efefef" stroke="#808080" stroke-width="3"/>
  <text x="1100" y="650" text-anchor="middle" class="h" fill="#444">Corporate infrastructure</text>

  <rect x="640" y="680" width="180" height="70" rx="14" fill="#fff" stroke="#999" stroke-width="2"/>
  <text x="730" y="723" text-anchor="middle" class="t" font-size="22">DNS</text>
  <rect x="900" y="680" width="180" height="70" rx="14" fill="#fff" stroke="#999" stroke-width="2"/>
  <text x="990" y="723" text-anchor="middle" class="t" font-size="22">NTP</text>
  <rect x="1160" y="680" width="320" height="70" rx="14" fill="#fff" stroke="#999" stroke-width="2"/>
  <text x="1320" y="723" text-anchor="middle" class="t" font-size="22">Log collector / ELK</text>

  <line x1="170" y1="320" x2="230" y2="320" stroke="#444" stroke-width="3" marker-end="url(#arr)"/>
  <circle cx="220" cy="280" r="14" fill="#fff" stroke="#444" stroke-width="2"/><text x="220" y="287" text-anchor="middle" class="n">1</text>

  <line x1="405" y1="320" x2="610" y2="320" stroke="#444" stroke-width="3" marker-end="url(#arr)"/>
  <circle cx="510" cy="280" r="14" fill="#fff" stroke="#444" stroke-width="2"/><text x="510" y="287" text-anchor="middle" class="n">2</text>

  <line x1="920" y1="290" x2="1110" y2="290" stroke="#444" stroke-width="3" marker-end="url(#arr)"/>
  <circle cx="1000" cy="255" r="14" fill="#fff" stroke="#444" stroke-width="2"/><text x="1000" y="262" text-anchor="middle" class="n">3</text>

  <line x1="920" y1="380" x2="1110" y2="470" stroke="#444" stroke-width="3" marker-end="url(#arr)"/>
  <circle cx="1000" cy="395" r="14" fill="#fff" stroke="#444" stroke-width="2"/><text x="1000" y="402" text-anchor="middle" class="n">4</text>

  <line x1="1390" y1="290" x2="1425" y2="355" stroke="#444" stroke-width="3" marker-end="url(#arr)"/>
  <line x1="1390" y1="470" x2="1425" y2="430" stroke="#444" stroke-width="3" marker-end="url(#arr)"/>
  <circle cx="1445" cy="305" r="14" fill="#fff" stroke="#444" stroke-width="2"/><text x="1445" y="312" text-anchor="middle" class="n">5</text>

  <line x1="730" y1="430" x2="730" y2="680" stroke="#666" stroke-width="3" stroke-dasharray="9 7" marker-end="url(#arr)"/>
  <circle cx="730" cy="500" r="14" fill="#fff" stroke="#444" stroke-width="2"/><text x="730" y="507" text-anchor="middle" class="n">6</text>

  <line x1="800" y1="430" x2="990" y2="680" stroke="#666" stroke-width="3" stroke-dasharray="9 7" marker-end="url(#arr)"/>
  <circle cx="850" cy="510" r="14" fill="#fff" stroke="#444" stroke-width="2"/><text x="850" y="517" text-anchor="middle" class="n">7</text>

  <line x1="850" y1="430" x2="1280" y2="680" stroke="#666" stroke-width="3" stroke-dasharray="9 7" marker-end="url(#arr)"/>
  <circle cx="1020" cy="550" r="14" fill="#fff" stroke="#444" stroke-width="2"/><text x="1020" y="557" text-anchor="middle" class="n">8</text>

  <rect x="40" y="800" width="1620" height="150" rx="14" fill="#f8fbff" stroke="#7aa6d8" stroke-width="2"/>
  <text x="850" y="835" text-anchor="middle" class="legend" font-weight="700">Легенда соединений</text>
  <text x="70" y="870" class="s">1) Посетитель -> Telegram Bot API: сообщения боту</text>
  <text x="70" y="900" class="s">2) Bot -> Telegram Bot API через firewall/proxy: outbound HTTPS 443; getUpdates / sendMessage</text>
  <text x="70" y="930" class="s">3) Bot -> Orchestra REST API: GET services, POST visits | 4) Bot -> Orchestra CometD: /cometd + long-polling</text>
  <text x="900" y="870" class="s">5) Orchestra -> DB: чтение услуг, создание визита, события VISIT_CALL</text>
  <text x="900" y="900" class="s">6) Bot -> DNS: разрешение имен | 7) Bot -> NTP: синхронизация времени</text>
  <text x="900" y="930" class="s">8) Bot -> Log collector: stdout / journald / ELK</text>
</svg>
