<?plantuml 1.2026.1?><svg xmlns="http://www.w3.org/2000/svg" xmlns:xlink="http://www.w3.org/1999/xlink" contentStyleType="text/css" data-diagram-type="SEQUENCE" height="531px" preserveAspectRatio="none" style="width:489px;height:531px;" version="1.1" viewBox="0 0 489 531" width="489px" zoomAndPan="magnify"><defs/><g><rect fill="#FFFFFF" height="100%" width="100%" x="0" y="0"/><g class="participant-lifeline" data-entity-uid="part1" data-qualified-name="User" id="part1-lifeline"><g><title>User</title><rect fill="#000000" fill-opacity="0.00000" height="369.5938" width="8" x="19.9551" y="81.2969"/><line style="stroke:#181818;stroke-width:0.5;stroke-dasharray:5,5;" x1="23" x2="23" y1="81.2969" y2="450.8906"/></g></g><g class="participant-lifeline" data-entity-uid="part2" data-qualified-name="Bot" id="part2-lifeline"><g><title>Bot</title><rect fill="#000000" fill-opacity="0.00000" height="369.5938" width="8" x="162.415" y="81.2969"/><line style="stroke:#181818;stroke-width:0.5;stroke-dasharray:5,5;" x1="165.5854" x2="165.5854" y1="81.2969" y2="450.8906"/></g></g><g class="participant-lifeline" data-entity-uid="part3" data-qualified-name="Config" id="part3-lifeline"><g><title>Branch Config</title><rect fill="#000000" fill-opacity="0.00000" height="369.5938" width="8" x="278.291" y="81.2969"/><line style="stroke:#181818;stroke-width:0.5;stroke-dasharray:5,5;" x1="281.915" x2="281.915" y1="81.2969" y2="450.8906"/></g></g><g class="participant-lifeline" data-entity-uid="part4" data-qualified-name="REST" id="part4-lifeline"><g><title>REST</title><rect fill="#000000" fill-opacity="0.00000" height="369.5938" width="8" x="454.3306" y="81.2969"/><line style="stroke:#181818;stroke-width:0.5;stroke-dasharray:5,5;" x1="458.3247" x2="458.3247" y1="81.2969" y2="450.8906"/></g></g><g class="participant participant-head" data-entity-uid="part1" data-qualified-name="User" id="part1-head"><text fill="#000000" font-family="sans-serif" font-size="14" lengthAdjust="spacing" textLength="31.9102" x="5" y="77.9951">User</text><ellipse cx="23.9551" cy="13.5" fill="#E2E2F0" rx="8" ry="8" style="stroke:#181818;stroke-width:0.5;"/><path d="M23.9551,21.5 L23.9551,48.5 M10.9551,29.5 L36.9551,29.5 M23.9551,48.5 L10.9551,63.5 M23.9551,48.5 L36.9551,63.5" fill="none" style="stroke:#181818;stroke-width:0.5;"/></g><g class="participant participant-tail" data-entity-uid="part1" data-qualified-name="User" id="part1-tail"><text fill="#000000" font-family="sans-serif" font-size="14" lengthAdjust="spacing" textLength="31.9102" x="5" y="462.8857">User</text><ellipse cx="23.9551" cy="474.6875" fill="#E2E2F0" rx="8" ry="8" style="stroke:#181818;stroke-width:0.5;"/><path d="M23.9551,482.6875 L23.9551,509.6875 M10.9551,490.6875 L36.9551,490.6875 M23.9551,509.6875 L10.9551,524.6875 M23.9551,509.6875 L36.9551,524.6875" fill="none" style="stroke:#181818;stroke-width:0.5;"/></g><g class="participant participant-head" data-entity-uid="part2" data-qualified-name="Bot" id="part2-head"><rect fill="#E2E2F0" height="30.2969" rx="2.5" ry="2.5" style="stroke:#181818;stroke-width:0.5;" width="37.6592" x="147.5854" y="50"/><text fill="#000000" font-family="sans-serif" font-size="14" lengthAdjust="spacing" textLength="23.6592" x="154.5854" y="69.9951">Bot</text></g><g class="participant participant-tail" data-entity-uid="part2" data-qualified-name="Bot" id="part2-tail"><rect fill="#E2E2F0" height="30.2969" rx="2.5" ry="2.5" style="stroke:#181818;stroke-width:0.5;" width="37.6592" x="147.5854" y="449.8906"/><text fill="#000000" font-family="sans-serif" font-size="14" lengthAdjust="spacing" textLength="23.6592" x="154.5854" y="469.8857">Bot</text></g><g class="participant participant-head" data-entity-uid="part3" data-qualified-name="Config" id="part3-head"><rect fill="#E2E2F0" height="30.2969" rx="2.5" ry="2.5" style="stroke:#181818;stroke-width:0.5;" width="112.752" x="225.915" y="50"/><text fill="#000000" font-family="sans-serif" font-size="14" lengthAdjust="spacing" textLength="98.752" x="232.915" y="69.9951">Branch Config</text></g><g class="participant participant-tail" data-entity-uid="part3" data-qualified-name="Config" id="part3-tail"><rect fill="#E2E2F0" height="30.2969" rx="2.5" ry="2.5" style="stroke:#181818;stroke-width:0.5;" width="112.752" x="225.915" y="449.8906"/><text fill="#000000" font-family="sans-serif" font-size="14" lengthAdjust="spacing" textLength="98.752" x="232.915" y="469.8857">Branch Config</text></g><g class="participant participant-head" data-entity-uid="part4" data-qualified-name="REST" id="part4-head"><rect fill="#E2E2F0" height="30.2969" rx="2.5" ry="2.5" style="stroke:#181818;stroke-width:0.5;" width="50.0117" x="433.3247" y="50"/><text fill="#000000" font-family="sans-serif" font-size="14" lengthAdjust="spacing" textLength="36.0117" x="440.3247" y="69.9951">REST</text></g><g class="participant participant-tail" data-entity-uid="part4" data-qualified-name="REST" id="part4-tail"><rect fill="#E2E2F0" height="30.2969" rx="2.5" ry="2.5" style="stroke:#181818;stroke-width:0.5;" width="50.0117" x="433.3247" y="449.8906"/><text fill="#000000" font-family="sans-serif" font-size="14" lengthAdjust="spacing" textLength="36.0117" x="440.3247" y="469.8857">REST</text></g><g class="message" data-entity-1="part1" data-entity-2="part2" id="msg1"><polygon fill="#181818" points="154.415,108.4297,164.415,112.4297,154.415,116.4297,158.415,112.4297" style="stroke:#181818;stroke-width:1;"/><line style="stroke:#181818;stroke-width:1;" x1="23.9551" x2="160.415" y1="112.4297" y2="112.4297"/><text fill="#000000" font-family="sans-serif" font-size="13" lengthAdjust="spacing" textLength="95.2783" x="30.9551" y="107.3638">"&#1042;&#1079;&#1103;&#1090;&#1100; &#1090;&#1072;&#1083;&#1086;&#1085;"</text></g><g class="message" data-entity-1="part2" data-entity-2="part3" id="msg2"><polygon fill="#181818" points="270.291,137.5625,280.291,141.5625,270.291,145.5625,274.291,141.5625" style="stroke:#181818;stroke-width:1;"/><line style="stroke:#181818;stroke-width:1;" x1="166.415" x2="276.291" y1="141.5625" y2="141.5625"/><text fill="#000000" font-family="sans-serif" font-size="13" lengthAdjust="spacing" textLength="91.876" x="173.415" y="136.4966">load branches</text></g><g class="message" data-entity-1="part3" data-entity-2="part2" id="msg3"><polygon fill="#181818" points="177.415,166.6953,167.415,170.6953,177.415,174.6953,173.415,170.6953" style="stroke:#181818;stroke-width:1;"/><line style="stroke:#181818;stroke-width:1;stroke-dasharray:2,2;" x1="171.415" x2="281.291" y1="170.6953" y2="170.6953"/><text fill="#000000" font-family="sans-serif" font-size="13" lengthAdjust="spacing" textLength="70.1035" x="183.415" y="165.6294">branches[]</text></g><g class="message" data-entity-1="part2" data-entity-2="part1" id="msg4"><polygon fill="#181818" points="34.9551,195.8281,24.9551,199.8281,34.9551,203.8281,30.9551,199.8281" style="stroke:#181818;stroke-width:1;"/><line style="stroke:#181818;stroke-width:1;stroke-dasharray:2,2;" x1="28.9551" x2="165.415" y1="199.8281" y2="199.8281"/><text fill="#000000" font-family="sans-serif" font-size="13" lengthAdjust="spacing" textLength="110.3096" x="40.9551" y="194.7622">branch keyboard</text></g><g class="message" data-entity-1="part1" data-entity-2="part2" id="msg5"><polygon fill="#181818" points="154.415,224.9609,164.415,228.9609,154.415,232.9609,158.415,228.9609" style="stroke:#181818;stroke-width:1;"/><line style="stroke:#181818;stroke-width:1;" x1="23.9551" x2="160.415" y1="228.9609" y2="228.9609"/><text fill="#000000" font-family="sans-serif" font-size="13" lengthAdjust="spacing" textLength="87.9468" x="30.9551" y="223.895">select branch</text></g><g class="message" data-entity-1="part2" data-entity-2="part4" id="msg6"><polygon fill="#181818" points="446.3306,254.0938,456.3306,258.0938,446.3306,262.0938,450.3306,258.0938" style="stroke:#181818;stroke-width:1;"/><line style="stroke:#181818;stroke-width:1;" x1="166.415" x2="452.3306" y1="258.0938" y2="258.0938"/><text fill="#000000" font-family="sans-serif" font-size="13" lengthAdjust="spacing" textLength="185.2056" x="173.415" y="253.0278">GET /branches/{id}/services</text></g><g class="message" data-entity-1="part4" data-entity-2="part2" id="msg7"><polygon fill="#181818" points="177.415,283.2266,167.415,287.2266,177.415,291.2266,173.415,287.2266" style="stroke:#181818;stroke-width:1;"/><line style="stroke:#181818;stroke-width:1;stroke-dasharray:2,2;" x1="171.415" x2="457.3306" y1="287.2266" y2="287.2266"/><text fill="#000000" font-family="sans-serif" font-size="13" lengthAdjust="spacing" textLength="63.4829" x="183.415" y="282.1606">services[]</text></g><g class="message" data-entity-1="part2" data-entity-2="part1" id="msg8"><polygon fill="#181818" points="34.9551,312.3594,24.9551,316.3594,34.9551,320.3594,30.9551,316.3594" style="stroke:#181818;stroke-width:1;"/><line style="stroke:#181818;stroke-width:1;stroke-dasharray:2,2;" x1="28.9551" x2="165.415" y1="316.3594" y2="316.3594"/><text fill="#000000" font-family="sans-serif" font-size="13" lengthAdjust="spacing" textLength="118.46" x="40.9551" y="311.2935">services keyboard</text></g><g class="message" data-entity-1="part1" data-entity-2="part2" id="msg9"><polygon fill="#181818" points="154.415,341.4922,164.415,345.4922,154.415,349.4922,158.415,345.4922" style="stroke:#181818;stroke-width:1;"/><line style="stroke:#181818;stroke-width:1;" x1="23.9551" x2="160.415" y1="345.4922" y2="345.4922"/><text fill="#000000" font-family="sans-serif" font-size="13" lengthAdjust="spacing" textLength="89.3242" x="30.9551" y="340.4263">select service</text></g><g class="message" data-entity-1="part2" data-entity-2="part4" id="msg10"><polygon fill="#181818" points="446.3306,370.625,456.3306,374.625,446.3306,378.625,450.3306,374.625" style="stroke:#181818;stroke-width:1;"/><line style="stroke:#181818;stroke-width:1;" x1="166.415" x2="452.3306" y1="374.625" y2="374.625"/><text fill="#000000" font-family="sans-serif" font-size="13" lengthAdjust="spacing" textLength="267.9155" x="173.415" y="369.5591">POST /entryPoints/{entry_point_id}/visits</text></g><g class="message" data-entity-1="part4" data-entity-2="part2" id="msg11"><polygon fill="#181818" points="177.415,399.7578,167.415,403.7578,177.415,407.7578,173.415,403.7578" style="stroke:#181818;stroke-width:1;"/><line style="stroke:#181818;stroke-width:1;stroke-dasharray:2,2;" x1="171.415" x2="457.3306" y1="403.7578" y2="403.7578"/><text fill="#000000" font-family="sans-serif" font-size="13" lengthAdjust="spacing" textLength="48.5659" x="183.415" y="398.6919">ticketId</text></g><g class="message" data-entity-1="part2" data-entity-2="part1" id="msg12"><polygon fill="#181818" points="34.9551,428.8906,24.9551,432.8906,34.9551,436.8906,30.9551,432.8906" style="stroke:#181818;stroke-width:1;"/><line style="stroke:#181818;stroke-width:1;stroke-dasharray:2,2;" x1="28.9551" x2="165.415" y1="432.8906" y2="432.8906"/><text fill="#000000" font-family="sans-serif" font-size="13" lengthAdjust="spacing" textLength="106.082" x="40.9551" y="427.8247">"&#1042;&#1072;&#1096; &#1090;&#1072;&#1083;&#1086;&#1085;: ..."</text></g><?plantuml-src VP2nJiCm54LtVyMJzoPx1ePM5MAYWZ8XL3csALQ27TccKeLOEZ4W8V4btHWGV8FzHpmtiI15OlExz_cUg-SQfJjcsJtKZ3ThQnwqc9dMMF2MQOUMr9umxb6vSj8ILBpYgcFQmzJuqKod-8VVmSpeMxMcmDpm76rTp2-NXAGmc9oaZ0feU0llyJNkuWl4NTY7Z_0LFYb1C-tq8HMqXWce3mpfIA_298Tau_gc_uTwWcG36hcj3RDYZ7QobTmFEncOAbPmEbz2cLFBHoMUIlovKHpXQUC7dUK_w6py3n-snlJ5EH9AlBxTBepI7XiSXbMNfbLgir5E-UCkUET6-ZDnr2ITU1-VVvstWg8ew3S0?></g></svg>